<?xml version="1.0" encoding="iso-8859-1"?>
<!-- Generator: Adobe Illustrator 19.0.0, SVG Export Plug-In . SVG Version: 6.00 Build 0)  -->
<svg version="1.1" id="Layer_1" xmlns="http://www.w3.org/2000/svg" xmlns:xlink="http://www.w3.org/1999/xlink" x="0px" y="0px"
	 viewBox="0 0 512 512" style="enable-background:new 0 0 512 512;" xml:space="preserve">
<g>
	<g>
		<g>
			<path d="M402.226,45.843c-3.901-2.72-9.264-1.762-11.98,2.138c-2.719,3.898-1.761,9.262,2.138,11.979
				C456.507,104.66,494.79,177.946,494.79,256c0,131.669-107.121,238.79-238.79,238.79S17.21,387.669,17.21,256
				S124.331,17.21,256,17.21c39.136,0,77.949,9.671,112.243,27.967c4.192,2.235,9.404,0.651,11.643-3.542
				c2.236-4.193,0.651-9.405-3.542-11.643C339.566,10.372,297.952,0,256,0C187.62,0,123.333,26.628,74.981,74.981
				C26.628,123.333,0,187.62,0,256s26.628,132.667,74.981,181.019C123.333,485.372,187.62,512,256,512
				s132.667-26.628,181.019-74.981C485.372,388.667,512,324.38,512,256C512,172.32,470.963,93.757,402.226,45.843z"/>
			<path d="M399.176,403.947c3.444,3.274,8.891,3.138,12.165-0.308c38.026-39.998,58.967-92.431,58.967-147.639
				c0-118.17-96.139-214.309-214.31-214.309C137.829,41.691,41.69,137.83,41.69,256s96.139,214.309,214.309,214.309
				c47.772,0,92.974-15.378,130.722-44.472c3.764-2.902,4.463-8.305,1.562-12.069c-2.901-3.765-8.305-4.466-12.069-1.562
				c-34.708,26.752-76.278,40.892-120.216,40.892C147.318,453.099,58.9,364.681,58.9,256S147.318,58.901,255.999,58.901
				c108.682,0,197.1,88.418,197.1,197.099c0,50.775-19.259,98.996-54.23,135.781C395.594,395.226,395.732,400.672,399.176,403.947z"
				/>
		</g>
	</g>
</g>
<g>
	<g>
		<polygon points="356.708,184.517 356.708,165.309 212.352,165.309 212.352,385.252 212.352,385.253 234.036,385.253 
			234.036,283.336 337.501,283.336 337.501,265.369 234.036,265.369 234.036,184.517 		"/>
	</g>
</g>
<g>
	<g>
		<path d="M154.493,139.339c-18.521,0-33.591,15.067-33.591,33.59s15.069,33.592,33.591,33.592s33.592-15.071,33.592-33.592
			C188.085,154.408,173.014,139.339,154.493,139.339z M154.493,189.311c-9.032,0-16.381-7.349-16.381-16.382
			c0-9.032,7.349-16.38,16.381-16.38c9.032,0,16.381,7.348,16.382,16.38C170.875,181.962,163.526,189.311,154.493,189.311z"/>
	</g>
</g>
<g>
</g>
<g>
</g>
<g>
</g>
<g>
</g>
<g>
</g>
<g>
</g>
<g>
</g>
<g>
</g>
<g>
</g>
<g>
</g>
<g>
</g>
<g>
</g>
<g>
</g>
<g>
</g>
<g>
</g>
</svg>
