<?xml version="1.0" encoding="iso-8859-1"?>
<!-- Generator: Adobe Illustrator 19.0.0, SVG Export Plug-In . SVG Version: 6.00 Build 0)  -->
<svg version="1.1" id="Layer_1" xmlns="http://www.w3.org/2000/svg" xmlns:xlink="http://www.w3.org/1999/xlink" x="0px" y="0px"
	 viewBox="0 0 511.997 511.997" style="enable-background:new 0 0 511.997 511.997;" xml:space="preserve">
<g>
	<g>
		<g>
			<path d="M476.267,291.506c-3.798-2.855-9.193-2.089-12.048,1.712l-15.078,20.07c-2.854,3.799-2.088,9.193,1.712,12.048
				c1.548,1.164,3.362,1.725,5.162,1.725c2.614,0,5.195-1.186,6.886-3.437l15.078-20.07
				C480.833,299.755,480.067,294.361,476.267,291.506z"/>
			<path d="M441.71,337.502c-3.798-2.855-9.193-2.088-12.048,1.712l-15.078,20.07c-2.854,3.799-2.088,9.193,1.712,12.048
				c1.548,1.164,3.362,1.725,5.162,1.725c2.614,0,5.195-1.186,6.886-3.437l15.078-20.07
				C446.276,345.751,445.511,340.357,441.71,337.502z"/>
			<path d="M407.153,383.498c-3.797-2.855-9.193-2.088-12.048,1.712l-15.078,20.071c-2.854,3.799-2.088,9.193,1.712,12.048
				c1.548,1.164,3.362,1.725,5.162,1.725c2.614,0,5.195-1.186,6.886-3.437l15.078-20.071
				C411.719,391.747,410.955,386.352,407.153,383.498z"/>
			<path d="M372.598,429.497c-3.8-2.855-9.196-2.09-12.048,1.71l-15.08,20.071c-2.855,3.8-2.089,9.194,1.71,12.048
				c1.549,1.164,3.363,1.725,5.163,1.725c2.614,0,5.195-1.186,6.885-3.436l15.08-20.071
				C377.164,437.745,376.398,432.35,372.598,429.497z"/>
			<path d="M410.132,291.507c-3.799-2.855-9.196-2.089-12.048,1.71l-15.08,20.07c-2.855,3.799-2.089,9.194,1.71,12.048
				c1.549,1.164,3.363,1.725,5.163,1.725c2.614,0,5.195-1.186,6.885-3.436l15.08-20.07
				C414.697,299.756,413.931,294.361,410.132,291.507z"/>
			<path d="M375.575,337.503c-3.799-2.854-9.195-2.089-12.048,1.71l-15.08,20.07c-2.855,3.799-2.089,9.194,1.71,12.048
				c1.549,1.164,3.364,1.725,5.163,1.725c2.614,0,5.195-1.186,6.885-3.436l15.08-20.07
				C380.14,345.752,379.374,340.357,375.575,337.503z"/>
			<path d="M341.018,383.499c-3.8-2.856-9.195-2.089-12.048,1.71l-15.08,20.071c-2.855,3.8-2.089,9.194,1.71,12.048
				c1.549,1.164,3.364,1.725,5.163,1.725c2.614,0,5.195-1.186,6.885-3.436l15.08-20.071
				C345.583,391.747,344.818,386.352,341.018,383.499z"/>
			<path d="M306.459,429.496c-3.798-2.855-9.193-2.089-12.048,1.712l-15.078,20.071c-2.854,3.799-2.088,9.193,1.712,12.048
				c1.548,1.164,3.362,1.725,5.162,1.725c2.614,0,5.195-1.186,6.886-3.437l15.078-20.071
				C311.025,437.745,310.259,432.35,306.459,429.496z"/>
			<path d="M323.741,327.061c2.614,0,5.195-1.186,6.886-3.437l15.078-20.07c2.854-3.799,2.088-9.193-1.712-12.048
				c-3.798-2.855-9.193-2.089-12.048,1.712l-15.078,20.07c-2.854,3.799-2.088,9.193,1.712,12.048
				C320.127,326.5,321.941,327.061,323.741,327.061z"/>
			<path d="M309.436,337.502c-3.798-2.855-9.193-2.088-12.048,1.712l-15.078,20.07c-2.854,3.799-2.088,9.193,1.712,12.048
				c1.548,1.164,3.362,1.725,5.162,1.725c2.614,0,5.195-1.186,6.886-3.437l15.078-20.07
				C314.002,345.751,313.236,340.357,309.436,337.502z"/>
			<path d="M274.88,383.499c-3.8-2.856-9.194-2.089-12.048,1.71l-15.08,20.071c-2.855,3.8-2.089,9.194,1.71,12.048
				c1.549,1.164,3.363,1.725,5.163,1.725c2.614,0,5.195-1.186,6.885-3.436l15.08-20.071
				C279.445,391.747,278.68,386.352,274.88,383.499z"/>
			<path d="M240.324,429.497c-3.8-2.855-9.196-2.09-12.048,1.71l-15.08,20.071c-2.855,3.8-2.089,9.194,1.71,12.048
				c1.549,1.164,3.363,1.725,5.163,1.725c2.614,0,5.195-1.186,6.885-3.436l15.08-20.071
				C244.889,437.745,244.123,432.35,240.324,429.497z"/>
			<path d="M243.297,337.502c-3.797-2.855-9.193-2.088-12.048,1.712l-15.078,20.07c-2.854,3.799-2.088,9.193,1.712,12.048
				c1.548,1.164,3.362,1.725,5.162,1.725c2.614,0,5.195-1.186,6.886-3.437l15.078-20.07
				C247.864,345.751,247.098,340.357,243.297,337.502z"/>
			<path d="M208.74,383.498c-3.798-2.855-9.193-2.088-12.048,1.712l-15.078,20.071c-2.854,3.799-2.088,9.193,1.712,12.048
				c1.548,1.164,3.362,1.725,5.162,1.725c2.614,0,5.195-1.186,6.886-3.437l15.078-20.071
				C213.307,391.747,212.541,386.352,208.74,383.498z"/>
			<path d="M174.185,429.497c-3.8-2.855-9.195-2.09-12.048,1.71l-15.08,20.071c-2.855,3.8-2.089,9.194,1.71,12.048
				c1.549,1.164,3.364,1.725,5.163,1.725c2.614,0,5.195-1.186,6.885-3.436l15.08-20.071
				C178.751,437.745,177.985,432.35,174.185,429.497z"/>
			<path d="M177.162,337.503c-3.8-2.854-9.194-2.089-12.048,1.71l-15.08,20.07c-2.855,3.799-2.089,9.194,1.71,12.048
				c1.549,1.164,3.363,1.725,5.163,1.725c2.614,0,5.195-1.186,6.885-3.436l15.08-20.07
				C181.727,345.752,180.961,340.357,177.162,337.503z"/>
			<path d="M142.605,383.499c-3.8-2.856-9.196-2.089-12.048,1.71l-15.08,20.071c-2.855,3.8-2.089,9.194,1.71,12.048
				c1.549,1.164,3.363,1.725,5.163,1.725c2.614,0,5.195-1.186,6.885-3.436l15.08-20.071
				C147.17,391.747,146.404,386.352,142.605,383.499z"/>
			<path d="M108.046,429.496c-3.797-2.855-9.193-2.089-12.048,1.712l-15.078,20.071c-2.854,3.799-2.088,9.193,1.712,12.048
				c1.548,1.164,3.362,1.725,5.162,1.725c2.614,0,5.195-1.186,6.886-3.437l15.078-20.071
				C112.612,437.745,111.846,432.35,108.046,429.496z"/>
			<path d="M111.023,337.502c-3.797-2.855-9.194-2.088-12.048,1.712l-15.078,20.07c-2.854,3.799-2.088,9.193,1.712,12.048
				c1.548,1.164,3.362,1.725,5.162,1.725c2.614,0,5.195-1.186,6.886-3.437l15.078-20.07
				C115.589,345.751,114.823,340.357,111.023,337.502z"/>
			<path d="M76.467,383.499c-3.8-2.856-9.196-2.089-12.048,1.71l-15.08,20.071c-2.855,3.8-2.089,9.194,1.71,12.048
				c1.549,1.164,3.364,1.725,5.163,1.725c2.614,0,5.195-1.186,6.885-3.436l15.08-20.071
				C81.032,391.747,80.266,386.352,76.467,383.499z"/>
			<path d="M41.911,429.497c-3.8-2.855-9.196-2.09-12.048,1.71l-15.08,20.071c-2.855,3.8-2.089,9.194,1.71,12.048
				c1.549,1.164,3.364,1.725,5.163,1.725c2.614,0,5.195-1.186,6.885-3.436l15.08-20.071C46.476,437.745,45.71,432.35,41.911,429.497
				z"/>
			<path d="M465.893,109.301c-1.067,0-2.131,0.037-3.191,0.11c-4.13-28.549-28.763-50.552-58.439-50.552
				c-24.923,0-46.543,15.217-55.148,37.893c-1.204-0.112-2.415-0.169-3.629-0.169c-0.919,0-1.831,0.044-2.739,0.109
				c-6.555-13.592-16.462-25.245-28.966-33.97c-14.791-10.322-32.174-15.777-50.269-15.777c-20.081,0-39.721,6.945-55.3,19.557
				c-13.059,10.571-22.852,24.746-28.148,40.545c-2.986-0.487-6.013-0.734-9.056-0.734c-16.477,0-32.034,7.237-42.663,19.61
				c-3.8-0.648-7.657-0.972-11.526-0.972c-37.671,0-68.319,30.647-68.319,68.317c0,9.521,1.929,18.694,5.713,27.324
				c-0.642,2.44-1.154,4.931-1.498,7.476c-1.309-0.106-2.623-0.158-3.943-0.158C21.878,227.909,0,249.789,0,276.682
				c0,26.892,21.878,48.77,48.771,48.77h165.831c27.152,0,49.241-22.089,49.241-49.24c0-5.09-0.777-10.002-2.217-14.625h51.684
				c4.752,0,8.605-3.853,8.605-8.605c0-4.752-3.853-8.605-8.605-8.605h-61.154c-0.308-0.362-0.631-0.706-0.949-1.057
				c-0.09-0.101-0.181-0.203-0.272-0.303c-0.443-0.485-0.897-0.958-1.357-1.424c-0.118-0.119-0.237-0.238-0.356-0.356
				c-0.452-0.446-0.909-0.884-1.376-1.311c-0.144-0.132-0.292-0.261-0.438-0.393c-0.455-0.407-0.913-0.809-1.381-1.197
				c-0.183-0.152-0.371-0.298-0.556-0.448c-0.444-0.358-0.89-0.716-1.346-1.057c-0.281-0.211-0.571-0.411-0.856-0.615
				c-0.374-0.268-0.743-0.543-1.125-0.8c-0.692-0.468-1.396-0.919-2.113-1.352c-0.06-0.037-0.123-0.069-0.183-0.105
				c-0.685-0.411-1.382-0.806-2.089-1.184c-0.086-0.045-0.173-0.088-0.259-0.133c-0.687-0.362-1.383-0.709-2.089-1.04
				c-0.086-0.041-0.174-0.078-0.261-0.118c-0.709-0.327-1.427-0.638-2.153-0.931c-0.083-0.033-0.167-0.066-0.251-0.099
				c-0.73-0.29-1.468-0.564-2.216-0.82c-0.085-0.029-0.169-0.057-0.254-0.086c-0.743-0.251-1.494-0.483-2.252-0.698
				c-0.091-0.026-0.184-0.053-0.276-0.079c-0.744-0.206-1.496-0.395-2.255-0.567c-0.109-0.025-0.216-0.052-0.325-0.075
				c-0.734-0.161-1.474-0.303-2.219-0.431c-0.134-0.023-0.267-0.049-0.401-0.072c-0.712-0.116-1.43-0.213-2.151-0.298
				c-0.166-0.019-0.33-0.045-0.496-0.063c-0.699-0.075-1.405-0.13-2.113-0.175c-0.181-0.012-0.36-0.031-0.542-0.041
				c-0.877-0.046-1.759-0.073-2.647-0.073c-2.273,0-4.541,0.157-6.787,0.467c-7.71-8.319-18.592-13.151-30.09-13.151
				c-1.439,0-2.873,0.075-4.297,0.225c-9.014-24.293-32.06-40.626-58.654-40.626c-1.115,0-2.222,0.037-3.325,0.095
				c-0.375,0.019-0.748,0.053-1.121,0.078c-0.719,0.051-1.434,0.11-2.146,0.184c-0.456,0.047-0.91,0.102-1.364,0.159
				c-0.608,0.077-1.211,0.166-1.813,0.26c-0.51,0.08-1.02,0.158-1.525,0.251c-0.469,0.086-0.934,0.186-1.399,0.282
				c-14.396,2.954-27.174,10.829-36.214,22.143c-0.105-1.347-0.157-2.704-0.157-4.07c0-28.18,22.927-51.107,51.109-51.107
				c4.348,0,8.675,0.55,12.863,1.632c3.487,0.902,7.174-0.468,9.227-3.43c7.304-10.544,19.302-16.838,32.099-16.838
				c4.208,0,8.368,0.677,12.367,2.01c2.307,0.77,4.831,0.529,6.949-0.667c2.119-1.193,3.632-3.228,4.169-5.6
				c7.331-32.45,35.713-55.112,69.02-55.112c26.641,0,50.384,14.526,62.552,37.636c-0.101,0.058-0.197,0.127-0.298,0.187
				c-0.616,0.364-1.222,0.743-1.817,1.14c-0.151,0.1-0.301,0.197-0.45,0.299c-0.708,0.485-1.402,0.992-2.076,1.524
				c-0.073,0.057-0.142,0.118-0.215,0.176c-0.602,0.482-1.19,0.985-1.764,1.504c-0.143,0.129-0.285,0.257-0.426,0.388
				c-0.63,0.586-1.25,1.188-1.844,1.818c-2.026-0.267-4.072-0.401-6.121-0.401c-25.667,0-46.548,20.88-46.548,46.546
				c0,25.667,20.881,46.548,46.548,46.548h99.3c-3.658,24.226-24.622,42.857-49.853,42.857H344.5c-4.752,0-8.605,3.853-8.605,8.605
				c0,4.752,3.853,8.605,8.605,8.605h15.998c34.733,0,63.422-26.324,67.194-60.067h38.198c25.423,0,46.107-20.683,46.107-46.108
				C512,129.987,491.316,109.301,465.893,109.301z M66.012,245.193c2.219-1.691,3.482-4.354,3.385-7.143l-0.01-0.263
				c-0.015-0.424-0.031-0.847-0.031-1.274c0-5.434,0.963-10.648,2.72-15.483c0.016-0.044,0.03-0.089,0.046-0.133
				c5.608-15.27,19.195-26.717,35.682-29.268c0.084-0.013,0.168-0.023,0.252-0.035c0.598-0.089,1.2-0.165,1.806-0.23
				c0.198-0.021,0.396-0.041,0.594-0.059c0.521-0.049,1.046-0.088,1.571-0.119c0.203-0.012,0.407-0.027,0.611-0.037
				c0.709-0.033,1.42-0.054,2.136-0.054c21.371,0.002,39.583,14.544,44.287,35.363c0.536,2.371,2.049,4.405,4.167,5.598
				c2.118,1.194,4.641,1.437,6.946,0.669c2.444-0.814,4.986-1.227,7.552-1.227c7.805,0,15.127,3.841,19.584,10.277
				c2.054,2.963,5.74,4.328,9.226,3.43c2.627-0.679,5.34-1.023,8.066-1.023c0.614,0,1.225,0.022,1.834,0.056
				c0.155,0.009,0.308,0.024,0.462,0.035c0.468,0.033,0.935,0.074,1.399,0.129c0.148,0.017,0.297,0.038,0.445,0.057
				c0.494,0.065,0.986,0.139,1.475,0.226c0.1,0.017,0.2,0.034,0.3,0.054c2.465,0.465,4.858,1.215,7.128,2.231
				c0.036,0.016,0.071,0.032,0.105,0.048c0.529,0.239,1.052,0.493,1.568,0.76c0.048,0.025,0.097,0.049,0.145,0.074
				c1.087,0.571,2.144,1.205,3.161,1.898c0.1,0.069,0.197,0.141,0.297,0.211c0.368,0.257,0.731,0.522,1.09,0.795
				c0.184,0.141,0.366,0.285,0.546,0.429c0.266,0.212,0.527,0.428,0.785,0.648c0.204,0.174,0.409,0.349,0.608,0.527
				c0.23,0.205,0.454,0.418,0.679,0.631c0.203,0.193,0.41,0.382,0.609,0.58c0.368,0.368,0.727,0.745,1.079,1.133
				c0.205,0.226,0.401,0.461,0.6,0.694c0.181,0.211,0.361,0.421,0.537,0.636c0.193,0.237,0.381,0.478,0.566,0.72
				c0.176,0.23,0.35,0.464,0.521,0.699c3.827,5.277,6.092,11.757,6.092,18.76c0,17.662-14.369,32.03-32.031,32.03H48.771
				c-17.403,0-31.561-14.157-31.561-31.56c0-17.405,14.158-31.563,31.561-31.563c3.22,0,6.402,0.485,9.457,1.441
				C60.891,247.393,63.792,246.883,66.012,245.193z M465.893,184.31h-46.397H311.054c-16.177,0-29.338-13.16-29.338-29.338
				c0-16.176,13.16-29.336,29.338-29.336c2.497,0,4.983,0.315,7.391,0.937c1.934,0.498,3.916,0.279,5.658-0.5
				c1.403-0.627,2.651-1.609,3.567-2.931c0.326-0.47,0.674-0.92,1.034-1.361c0.092-0.113,0.186-0.224,0.28-0.335
				c0.324-0.381,0.658-0.752,1.007-1.109c0.051-0.052,0.098-0.105,0.148-0.156c0.4-0.401,0.818-0.784,1.247-1.152
				c0.096-0.082,0.194-0.16,0.29-0.241c0.367-0.303,0.742-0.596,1.128-0.875c0.088-0.063,0.174-0.131,0.264-0.194
				c0.457-0.319,0.925-0.622,1.406-0.906c0.102-0.06,0.206-0.116,0.31-0.174c0.402-0.229,0.812-0.445,1.229-0.649
				c0.12-0.059,0.24-0.119,0.361-0.176c0.507-0.236,1.022-0.454,1.547-0.651c0.076-0.028,0.154-0.052,0.23-0.08
				c0.482-0.173,0.97-0.33,1.465-0.469c1.89-0.535,3.862-0.824,5.872-0.824c2.335,0,4.646,0.375,6.869,1.115
				c2.308,0.768,4.829,0.526,6.946-0.669c2.118-1.193,3.631-3.228,4.167-5.599c4.264-18.874,21.42-32.572,40.795-32.572
				c23.069,0,41.838,18.769,41.838,41.838c0,0.422-0.018,0.84-0.033,1.257l-0.004,0.137c-0.104,2.792,1.155,5.462,3.377,7.157
				c2.22,1.696,5.126,2.209,7.795,1.371c2.791-0.875,5.704-1.319,8.658-1.319c15.933,0,28.897,12.964,28.897,28.9
				C494.79,171.347,481.827,184.31,465.893,184.31z"/>
		</g>
	</g>
</g>
<g>
</g>
<g>
</g>
<g>
</g>
<g>
</g>
<g>
</g>
<g>
</g>
<g>
</g>
<g>
</g>
<g>
</g>
<g>
</g>
<g>
</g>
<g>
</g>
<g>
</g>
<g>
</g>
<g>
</g>
</svg>
