<?xml version="1.0" encoding="iso-8859-1"?>
<!-- Generator: Adobe Illustrator 19.0.0, SVG Export Plug-In . SVG Version: 6.00 Build 0)  -->
<svg version="1.1" id="Layer_1" xmlns="http://www.w3.org/2000/svg" xmlns:xlink="http://www.w3.org/1999/xlink" x="0px" y="0px"
	 viewBox="0 0 512.001 512.001" style="enable-background:new 0 0 512.001 512.001;" xml:space="preserve">
<g>
	<g>
		<g>
			<path d="M188.142,375.169l-41.517-6.032l-18.568-37.622c-3.907-7.915-11.816-12.83-20.641-12.83
				c-8.826,0-16.736,4.917-20.642,12.831l-18.567,37.621l-41.519,6.032c-8.732,1.271-15.852,7.275-18.581,15.669
				c-2.727,8.392-0.495,17.434,5.825,23.597l30.041,29.282l-7.093,41.35c-1.489,8.7,2.02,17.327,9.16,22.512
				c4.035,2.931,8.755,4.421,13.509,4.421c3.658,0,7.336-0.883,10.734-2.668l37.134-19.523l37.135,19.524
				c3.291,1.728,6.994,2.643,10.708,2.643c4.891,0,9.57-1.52,13.53-4.396c7.14-5.187,10.65-13.813,9.159-22.515l-0.64-3.729
				c-0.805-4.685-5.252-7.831-9.94-7.028c-4.686,0.804-7.832,5.254-7.028,9.939l0.639,3.727c0.377,2.195-0.509,4.371-2.308,5.678
				c-1.759,1.277-4.193,1.45-6.112,0.443l-41.138-21.63c-2.508-1.318-5.505-1.318-8.012,0l-41.138,21.629
				c-1.971,1.037-4.312,0.866-6.114-0.442c-1.8-1.307-2.685-3.483-2.309-5.676l7.858-45.808c0.479-2.793-0.447-5.641-2.476-7.619
				l-33.281-32.439c-1.594-1.555-2.157-3.835-1.47-5.95c0.689-2.117,2.484-3.632,4.686-3.953l45.996-6.683
				c2.803-0.408,5.227-2.169,6.48-4.709l20.57-41.677c0.984-1.996,2.978-3.234,5.204-3.234c2.224,0,4.219,1.24,5.203,3.233
				l20.57,41.679c1.255,2.54,3.678,4.302,6.482,4.709l45.993,6.683c2.202,0.321,3.998,1.834,4.687,3.953
				c0.688,2.115,0.125,4.395-1.469,5.949l-33.282,32.44c-2.029,1.978-2.955,4.826-2.476,7.619l2.517,14.674
				c0.804,4.686,5.257,7.828,9.939,7.028c4.685-0.804,7.832-5.254,7.028-9.939l-1.752-10.213l30.043-29.283
				c6.319-6.162,8.552-15.203,5.824-23.597C203.998,382.445,196.878,376.441,188.142,375.169z"/>
			<path d="M231.764,55.243c0.481,14.246,6.48,27.451,16.894,37.185c1.659,1.55,3.769,2.319,5.876,2.319
				c2.299,0,4.594-0.917,6.29-2.729c3.246-3.473,3.063-8.92-0.411-12.167c-7.054-6.593-11.118-15.538-11.443-25.188
				c-0.326-9.65,3.127-18.849,9.72-25.904c0.282-0.302,0.529-0.623,0.759-0.952c13.723-13.737,36.042-14.216,50.333-0.86
				c7.065,6.605,11.135,15.567,11.462,25.234c0.325,9.666-3.132,18.882-9.737,25.948L123.542,279.202
				c-3.246,3.473-3.063,8.92,0.41,12.166c1.66,1.552,3.771,2.32,5.877,2.32c2.3,0,4.595-0.916,6.29-2.73L324.082,89.886
				c9.745-10.424,14.847-24.021,14.366-38.285c-0.481-14.263-6.488-27.484-16.912-37.23c-21.521-20.114-55.397-18.976-75.515,2.545
				c-0.395,0.423-0.738,0.876-1.031,1.35C235.997,28.503,231.303,41.562,231.764,55.243z"/>
			<path d="M488.118,170.092c-21.523-20.119-55.4-18.976-75.514,2.544L224.641,373.707c-3.246,3.473-3.062,8.92,0.41,12.166
				c1.66,1.552,3.771,2.32,5.877,2.32c2.299,0,4.594-0.916,6.289-2.73L425.18,184.392c13.634-14.585,36.593-15.359,51.182-1.724
				c14.286,13.357,15.312,35.654,2.534,50.27c-0.314,0.253-0.619,0.522-0.903,0.825c-6.592,7.054-15.538,11.118-25.188,11.443
				c-9.651,0.329-18.85-3.127-25.904-9.721c-3.474-3.243-8.92-3.063-12.167,0.411c-3.245,3.473-3.062,8.92,0.411,12.167
				c9.963,9.312,22.825,14.38,36.396,14.38c0.613,0,1.228-0.011,1.842-0.031c13.684-0.461,26.396-6.025,36.005-15.688
				c0.452-0.325,0.879-0.696,1.273-1.118C510.781,224.086,509.638,190.21,488.118,170.092z"/>
			<path d="M179.541,320.627l-9.083,9.716c-3.246,3.473-3.062,8.92,0.41,12.166c1.66,1.552,3.77,2.32,5.877,2.32
				c2.299,0,4.594-0.916,6.29-2.73l9.083-9.716c3.246-3.473,3.063-8.92-0.41-12.166
				C188.234,316.971,182.788,317.153,179.541,320.627z"/>
			<path d="M449.826,44.094c-3.473-3.246-8.921-3.064-12.166,0.41l-237.764,254.35c-3.246,3.473-3.063,8.92,0.41,12.166
				c1.659,1.552,3.769,2.32,5.876,2.32c2.3,0,4.595-0.917,6.29-2.73L450.236,56.26C453.482,52.787,453.299,47.34,449.826,44.094z"/>
			<path d="M54.513,276.543c2.3,0,4.595-0.916,6.29-2.73l88.996-95.205c3.246-3.473,3.063-8.92-0.41-12.166
				c-3.471-3.246-8.919-3.065-12.166,0.41l-88.996,95.205c-3.246,3.473-3.063,8.92,0.41,12.166
				C50.296,275.775,52.406,276.543,54.513,276.543z"/>
			<path d="M300.161,388.373l-63.795,68.247c-3.246,3.473-3.063,8.92,0.41,12.166c1.659,1.552,3.77,2.32,5.876,2.32
				c2.3,0,4.595-0.917,6.29-2.73l63.795-68.247c3.246-3.473,3.063-8.92-0.41-12.166C308.854,384.717,303.406,384.9,300.161,388.373z
				"/>
			<path d="M325.362,361.413l-5.003,5.352c-3.247,3.473-3.064,8.92,0.409,12.167c1.66,1.552,3.771,2.32,5.877,2.32
				c2.3,0,4.595-0.917,6.29-2.729l5.003-5.352c3.246-3.473,3.064-8.921-0.409-12.167
				C334.054,357.758,328.609,357.942,325.362,361.413z"/>
		</g>
	</g>
</g>
<g>
</g>
<g>
</g>
<g>
</g>
<g>
</g>
<g>
</g>
<g>
</g>
<g>
</g>
<g>
</g>
<g>
</g>
<g>
</g>
<g>
</g>
<g>
</g>
<g>
</g>
<g>
</g>
<g>
</g>
</svg>
