<svg height="480pt" viewBox="0 0 480 480.02593" width="480pt" xmlns="http://www.w3.org/2000/svg"><path d="m479.933594 208.027344c-.050782-23.394532-16.9375-43.351563-40-47.273438v-.726562c-.023438-23.367188-10.253906-45.558594-28.003906-60.753906-17.753907-15.195313-41.253907-21.882813-64.347657-18.304688-12.21875-42.375-48.167969-73.636719-91.828125-79.851562-43.664062-6.214844-86.90625 13.769531-110.464844 51.054687-24.398437-8.152344-51.226562-4.078125-72.097656 10.953125-20.875 15.03125-33.25 39.179688-33.257812 64.902344 0 1.550781.050781 3.09375.136718 4.621094-26.617187 10.738281-42.832031 37.886718-39.667968 66.414062 3.167968 28.53125 24.941406 51.460938 53.269531 56.097656 16.152344 25.410156 44.15625 40.816406 74.261719 40.867188 14.160156.023437 28.109375-3.402344 40.648437-9.976563 14.953125 17.96875 37.695313 27.558594 60.996094 25.726563 23.304687-1.835938 44.265625-14.867188 56.222656-34.953125 11.289063 12.953125 27.90625 19.996093 45.066407 19.09375 17.160156-.902344 32.949218-9.644531 42.820312-23.707031 11.246094 7.316406 25.039062 9.605468 38.050781 6.3125 13.007813-3.292969 24.050781-11.871094 30.460938-23.65625 22.015625-4.820313 37.710937-24.304688 37.734375-46.839844zm-48.628906 32.285156-1.832032 4.21875c-4.207031 9.824219-13.023437 16.917969-23.523437 18.921875-10.496094 2.007813-21.308594-1.339844-28.839844-8.921875l-8.085937-8.105469-4.800782 10.398438c-6.503906 14.089843-20.582031 23.136719-36.101562 23.199219-15.515625.0625-29.664063-8.871094-36.28125-22.910157l-8.433594-18.03125-6.398438 18.855469c-6.832031 20.210938-24.554687 34.78125-45.703124 37.582031-21.148438 2.796875-42.050782-6.660156-53.90625-24.398437l-4.359376-6.558594-6.617187 4.253906c-11.484375 7.355469-24.847656 11.25-38.488281 11.210938-25.824219-.039063-49.660156-13.878906-62.496094-36.289063l-2.054688-3.609375-4.144531-.390625c-22.9375-2.234375-41.042969-20.476562-43.105469-43.429687-2.066406-22.957032 12.492188-44.132813 34.667969-50.425782l6.734375-1.855468-.984375-6.945313c-.421875-3-.628906-6.027343-.617187-9.054687-.003906-21.59375 10.878906-41.730469 28.941406-53.558594s40.871094-13.75 60.660156-5.113281l6.695313 2.925781 3.519531-6.398438c19.277344-35.214843 58.429688-54.714843 98.152344-48.886718 39.71875 5.832031 71.617187 35.761718 79.960937 75.03125l1.742188 8.183594 8.105469-2.105469c19.1875-4.992188 39.601562-.824219 55.292968 11.289062 15.695313 12.113281 24.898438 30.808594 24.929688 50.632813.003906 2.351562-.136719 4.703125-.421875 7.039062l-.609375 8.960938h9.03125c16.84375.09375 30.730468 13.222656 31.761718 30.035156 1.035157 16.808594-11.136718 31.542969-27.839843 33.699219zm0 0"/><path d="m63.933594 312.027344c-13.253906 0-24 10.742187-24 24 0 13.253906 10.746094 24 24 24 13.257812 0 24-10.746094 24-24 0-13.257813-10.742188-24-24-24zm0 32c-4.417969 0-8-3.582032-8-8 0-4.417969 3.582031-8 8-8 4.417968 0 8 3.582031 8 8 0 4.417968-3.582032 8-8 8zm0 0"/><path d="m159.933594 368.027344c0 8.835937-7.160156 16-16 16-8.835938 0-16-7.164063-16-16 0-8.839844 7.164062-16 16-16 8.839844 0 16 7.160156 16 16zm0 0"/><path d="m63.933594 408.027344c-13.253906 0-24 10.742187-24 24 0 13.253906 10.746094 24 24 24 13.257812 0 24-10.746094 24-24 0-13.257813-10.742188-24-24-24zm0 32c-4.417969 0-8-3.582032-8-8 0-4.417969 3.582031-8 8-8 4.417968 0 8 3.582031 8 8 0 4.417968-3.582032 8-8 8zm0 0"/><path d="m199.933594 456.027344c0 8.835937-7.160156 16-16 16-8.835938 0-16-7.164063-16-16 0-8.839844 7.164062-16 16-16 8.839844 0 16 7.160156 16 16zm0 0"/><path d="m231.933594 408.027344c0 8.835937-7.160156 16-16 16-8.835938 0-16-7.164063-16-16 0-8.839844 7.164062-16 16-16 8.839844 0 16 7.160156 16 16zm0 0"/><path d="m255.933594 312.027344c-17.671875 0-32 14.324218-32 32 0 17.671875 14.328125 32 32 32 17.675781 0 32-14.328125 32-32 0-17.675782-14.324219-32-32-32zm0 48c-8.835938 0-16-7.164063-16-16 0-8.839844 7.164062-16 16-16 8.839844 0 16 7.160156 16 16 0 8.835937-7.160156 16-16 16zm0 0"/><path d="m407.933594 360.027344c0-13.257813-10.742188-24-24-24-13.253906 0-24 10.742187-24 24 0 13.253906 10.746094 24 24 24 13.257812 0 24-10.746094 24-24zm-24 8c-4.417969 0-8-3.582032-8-8 0-4.417969 3.582031-8 8-8 4.417968 0 8 3.582031 8 8 0 4.417968-3.582032 8-8 8zm0 0"/><path d="m343.933594 408.027344c0 8.835937-7.160156 16-16 16-8.835938 0-16-7.164063-16-16 0-8.839844 7.164062-16 16-16 8.839844 0 16 7.160156 16 16zm0 0"/><path d="m423.933594 464.027344c0 8.835937-7.160156 16-16 16-8.835938 0-16-7.164063-16-16 0-8.839844 7.164062-16 16-16 8.839844 0 16 7.160156 16 16zm0 0"/><path d="m471.933594 296.027344c0 8.835937-7.160156 16-16 16-8.835938 0-16-7.164063-16-16 0-8.839844 7.164062-16 16-16 8.839844 0 16 7.160156 16 16zm0 0"/></svg>