<?xml version="1.0" encoding="iso-8859-1"?>
<!-- Generator: Adobe Illustrator 19.0.0, SVG Export Plug-In . SVG Version: 6.00 Build 0)  -->
<svg version="1.1" id="Layer_1" xmlns="http://www.w3.org/2000/svg" xmlns:xlink="http://www.w3.org/1999/xlink" x="0px" y="0px"
	 viewBox="0 0 512 512" style="enable-background:new 0 0 512 512;" xml:space="preserve">
<g>
	<g>
		<g>
			<path d="M449.918,291.795l-15.08,20.07c-2.855,3.799-2.089,9.194,1.71,12.048c1.549,1.164,3.363,1.725,5.163,1.725
				c2.614,0,5.195-1.186,6.885-3.436l15.08-20.07c2.855-3.799,2.089-9.194-1.71-12.048
				C458.166,287.23,452.772,287.996,449.918,291.795z"/>
			<path d="M427.41,336.082c-3.8-2.855-9.194-2.089-12.048,1.71l-15.08,20.07c-2.855,3.799-2.089,9.194,1.71,12.048
				c1.549,1.164,3.364,1.725,5.163,1.725c2.614,0,5.195-1.186,6.885-3.436l15.08-20.07
				C431.976,344.331,431.21,338.936,427.41,336.082z"/>
			<path d="M392.853,382.078c-3.8-2.855-9.195-2.089-12.048,1.71l-15.08,20.071c-2.855,3.8-2.089,9.194,1.71,12.048
				c1.549,1.164,3.364,1.725,5.163,1.725c2.614,0,5.195-1.186,6.885-3.436l15.08-20.071
				C397.419,390.326,396.653,384.931,392.853,382.078z"/>
			<path d="M358.294,428.075c-3.798-2.855-9.193-2.089-12.048,1.712l-15.078,20.071c-2.854,3.799-2.088,9.193,1.712,12.048
				c1.548,1.164,3.362,1.725,5.162,1.725c2.614,0,5.195-1.186,6.886-3.437l15.078-20.071
				C362.86,436.324,362.094,430.929,358.294,428.075z"/>
			<path d="M97.657,368.2l15.078-20.07c2.854-3.799,2.088-9.193-1.712-12.048c-3.798-2.855-9.193-2.089-12.048,1.712l-15.078,20.07
				c-2.854,3.799-2.088,9.193,1.712,12.048c1.548,1.164,3.362,1.725,5.162,1.725C93.384,371.637,95.966,370.45,97.657,368.2z"/>
			<path d="M76.467,382.078c-3.8-2.855-9.196-2.089-12.048,1.71l-15.08,20.071c-2.855,3.8-2.089,9.194,1.71,12.048
				c1.549,1.164,3.364,1.725,5.163,1.725c2.614,0,5.195-1.186,6.885-3.436l15.08-20.071
				C81.032,390.326,80.266,384.931,76.467,382.078z"/>
			<path d="M41.911,428.076c-3.8-2.856-9.196-2.09-12.048,1.71l-15.08,20.071c-2.855,3.8-2.089,9.194,1.71,12.048
				c1.549,1.164,3.364,1.725,5.163,1.725c2.614,0,5.195-1.186,6.885-3.436l15.08-20.071
				C46.476,436.324,45.71,430.929,41.911,428.076z"/>
			<path d="M292.961,291.795l-15.08,20.07c-2.855,3.799-2.089,9.194,1.71,12.048c1.549,1.164,3.363,1.725,5.163,1.725
				c2.614,0,5.195-1.186,6.885-3.436l15.08-20.07c2.855-3.799,2.089-9.194-1.71-12.048
				C301.207,287.23,295.814,287.996,292.961,291.795z"/>
			<path d="M270.453,336.082c-3.801-2.855-9.195-2.089-12.048,1.71l-15.08,20.07c-2.855,3.799-2.089,9.194,1.71,12.048
				c1.549,1.164,3.364,1.725,5.163,1.725c2.614,0,5.195-1.186,6.885-3.436l15.08-20.07
				C275.018,344.331,274.252,338.936,270.453,336.082z"/>
			<path d="M235.897,382.078c-3.799-2.855-9.195-2.089-12.048,1.71l-15.08,20.071c-2.855,3.8-2.089,9.194,1.71,12.048
				c1.549,1.164,3.363,1.725,5.163,1.725c2.614,0,5.195-1.186,6.885-3.436l15.08-20.071
				C240.461,390.326,239.696,384.931,235.897,382.078z"/>
			<path d="M201.337,428.075c-3.798-2.855-9.193-2.089-12.048,1.712l-15.078,20.071c-2.854,3.799-2.088,9.193,1.712,12.048
				c1.548,1.164,3.362,1.725,5.162,1.725c2.614,0,5.195-1.186,6.886-3.437l15.078-20.071
				C205.903,436.324,205.137,430.929,201.337,428.075z"/>
			<path d="M48.771,310.047h165.831c27.152,0,49.241-22.089,49.241-49.24c0-3.541-0.384-6.992-1.097-10.323h50.564
				c4.752,0,8.605-3.853,8.605-8.605s-3.853-8.605-8.605-8.605h-57.883c-4.941-7.336-11.69-13.087-19.462-16.828
				c-0.015-0.008-0.03-0.015-0.045-0.023c-0.62-0.297-1.246-0.579-1.877-0.85c-0.208-0.089-0.416-0.177-0.626-0.265
				c-0.556-0.23-1.114-0.454-1.679-0.664c-0.319-0.118-0.643-0.227-0.965-0.34c-0.498-0.173-0.994-0.351-1.497-0.508
				c-0.801-0.251-1.61-0.481-2.429-0.692c-0.314-0.081-0.634-0.145-0.949-0.219c-0.595-0.14-1.191-0.275-1.793-0.394
				c-0.343-0.068-0.69-0.125-1.035-0.185c-0.591-0.103-1.184-0.196-1.782-0.277c-0.34-0.046-0.68-0.09-1.022-0.13
				c-0.641-0.074-1.288-0.131-1.935-0.18c-0.296-0.023-0.589-0.051-0.885-0.068c-0.941-0.054-1.888-0.088-2.842-0.088
				c-2.273,0-4.541,0.157-6.787,0.467c-7.71-8.319-18.592-13.151-30.09-13.151c-1.439,0-2.873,0.075-4.297,0.225
				c-9.014-24.293-32.06-40.626-58.654-40.626c-1.129,0-2.25,0.039-3.366,0.098c-0.314,0.017-0.626,0.044-0.939,0.066
				c-0.828,0.057-1.653,0.127-2.473,0.215c-0.315,0.034-0.629,0.071-0.943,0.111c-0.883,0.11-1.761,0.238-2.632,0.383
				c-0.211,0.035-0.424,0.067-0.634,0.104c-2.267,0.403-4.493,0.927-6.67,1.568c-0.051,0.015-0.1,0.032-0.151,0.046
				c-1.02,0.303-2.028,0.634-3.025,0.986c-0.154,0.055-0.307,0.111-0.46,0.166c-0.936,0.339-1.86,0.699-2.774,1.081
				c-0.126,0.053-0.253,0.102-0.379,0.156c-2.046,0.871-4.038,1.844-5.966,2.92c-0.234,0.131-0.465,0.27-0.697,0.403
				c-0.668,0.384-1.328,0.777-1.98,1.184c-0.357,0.223-0.711,0.45-1.064,0.68c-0.503,0.329-1.001,0.667-1.495,1.01
				c-0.411,0.285-0.823,0.568-1.227,0.863c-0.369,0.269-0.727,0.55-1.09,0.827c-1.105,0.842-2.185,1.717-3.231,2.631
				c-0.058,0.051-0.118,0.099-0.176,0.151c-0.595,0.524-1.174,1.065-1.749,1.61c-0.137,0.13-0.274,0.258-0.41,0.389
				c-0.587,0.568-1.163,1.146-1.727,1.736c-0.065,0.067-0.127,0.136-0.19,0.202c-1.257,1.325-2.475,2.69-3.616,4.125
				c0-0.01,0-0.019,0-0.028c0-28.18,22.927-51.107,51.109-51.107c4.348,0,8.675,0.55,12.863,1.632
				c3.486,0.899,7.173-0.469,9.227-3.43c7.303-10.544,19.302-16.838,32.099-16.838c4.208,0,8.368,0.677,12.366,2.01
				c2.307,0.771,4.831,0.529,6.949-0.667c2.119-1.193,3.632-3.228,4.169-5.6c7.331-32.449,35.713-55.112,69.02-55.112
				c26.641,0,50.384,14.526,62.552,37.636c-0.101,0.058-0.197,0.127-0.297,0.186c-0.616,0.364-1.222,0.743-1.819,1.14
				c-0.15,0.1-0.3,0.197-0.449,0.298c-0.708,0.486-1.402,0.992-2.078,1.524c-0.072,0.057-0.14,0.117-0.211,0.174
				c-0.605,0.483-1.193,0.987-1.769,1.508c-0.141,0.128-0.282,0.255-0.422,0.384c-0.631,0.587-1.252,1.189-1.846,1.82
				c-2.026-0.267-4.072-0.401-6.121-0.401c-25.667,0-46.548,20.88-46.548,46.546c0,25.667,20.881,46.548,46.548,46.548h99.3
				c-3.658,24.226-24.622,42.857-49.853,42.857h-15.998c-4.752,0-8.605,3.853-8.605,8.605c0,4.752,3.853,8.605,8.605,8.605h15.998
				c34.733,0,63.422-26.324,67.194-60.067h38.198c25.423,0,46.107-20.683,46.107-46.108c0-25.426-20.683-46.11-46.107-46.11
				c-1.067,0-2.131,0.037-3.191,0.11c-4.13-28.549-28.763-50.552-58.439-50.552c-24.923,0-46.543,15.217-55.148,37.893
				c-1.204-0.112-2.415-0.169-3.629-0.169c-0.919,0-1.831,0.044-2.739,0.109c-6.555-13.592-16.462-25.245-28.966-33.97
				c-14.791-10.322-32.174-15.777-50.269-15.777c-20.081,0-39.721,6.945-55.3,19.557c-13.059,10.571-22.852,24.746-28.148,40.545
				c-2.986-0.487-6.013-0.734-9.056-0.734c-16.477,0-32.034,7.237-42.663,19.61c-3.8-0.648-7.657-0.972-11.526-0.972
				c-37.671,0-68.319,30.647-68.319,68.317c0,8.888,1.711,17.526,5.064,25.727c-0.339,1.57-0.632,3.159-0.851,4.77
				c-1.309-0.106-2.623-0.158-3.943-0.158C21.878,212.505,0,234.384,0,261.277C0,288.169,21.878,310.047,48.771,310.047z
				 M327.669,112.039c0.326-0.47,0.674-0.92,1.034-1.361c0.093-0.113,0.186-0.224,0.28-0.334c0.325-0.382,0.659-0.753,1.008-1.109
				c0.049-0.051,0.097-0.104,0.146-0.155c0.4-0.402,0.818-0.784,1.247-1.153c0.096-0.082,0.194-0.16,0.29-0.241
				c0.367-0.304,0.743-0.596,1.129-0.876c0.088-0.063,0.173-0.13,0.262-0.193c0.457-0.32,0.926-0.623,1.406-0.907
				c0.102-0.06,0.207-0.115,0.31-0.174c0.402-0.229,0.813-0.445,1.231-0.649c0.12-0.058,0.24-0.119,0.36-0.176
				c0.507-0.236,1.022-0.454,1.547-0.65c0.076-0.029,0.155-0.053,0.232-0.081c0.481-0.173,0.968-0.329,1.462-0.468
				c1.891-0.535,3.863-0.824,5.873-0.824c2.335,0.002,4.647,0.376,6.869,1.118c2.307,0.769,4.828,0.526,6.946-0.669
				c2.118-1.193,3.631-3.228,4.167-5.599c4.264-18.874,21.42-32.572,40.795-32.572c23.069,0,41.838,18.769,41.838,41.838
				c0,0.422-0.018,0.84-0.033,1.257l-0.004,0.137c-0.104,2.792,1.155,5.462,3.377,7.157c2.22,1.695,5.126,2.21,7.795,1.371
				c2.791-0.874,5.704-1.319,8.658-1.319c15.933,0,28.897,12.965,28.897,28.9c0,15.934-12.963,28.898-28.897,28.898h-46.397H311.054
				c-16.177,0-29.338-13.16-29.338-29.338c0-16.176,13.16-29.336,29.338-29.336c2.497,0,4.983,0.315,7.391,0.937
				C321.936,116.37,325.617,115.002,327.669,112.039z M48.771,229.715c3.22,0,6.402,0.485,9.457,1.441
				c2.663,0.834,5.564,0.324,7.784-1.367c2.219-1.691,3.482-4.354,3.385-7.143l-0.01-0.263c-0.015-0.424-0.031-0.847-0.031-1.274
				c0-4.455,0.656-8.759,1.858-12.83c0.072-0.245,0.138-0.493,0.214-0.737c0.211-0.672,0.437-1.34,0.678-1.998
				c0.021-0.058,0.045-0.115,0.067-0.174c0.233-0.629,0.479-1.253,0.738-1.868c0.021-0.052,0.045-0.102,0.067-0.154
				c3.166-7.421,8.25-13.835,14.629-18.612c0.013-0.01,0.025-0.018,0.038-0.028c0.525-0.392,1.059-0.77,1.602-1.139
				c0.105-0.072,0.211-0.144,0.317-0.214c0.455-0.304,0.916-0.599,1.382-0.887c0.152-0.094,0.302-0.19,0.455-0.282
				c0.446-0.269,0.899-0.527,1.355-0.781c0.158-0.088,0.313-0.181,0.472-0.267c0.565-0.305,1.137-0.598,1.715-0.88
				c0.319-0.155,0.644-0.299,0.967-0.447c0.278-0.127,0.554-0.256,0.835-0.378c0.362-0.157,0.729-0.307,1.097-0.455
				c0.246-0.099,0.493-0.198,0.74-0.293c0.385-0.147,0.773-0.29,1.164-0.427c0.232-0.082,0.466-0.159,0.7-0.238
				c0.406-0.136,0.812-0.27,1.223-0.394c0.207-0.062,0.415-0.117,0.623-0.177c0.852-0.244,1.712-0.464,2.581-0.658
				c0.177-0.04,0.352-0.085,0.53-0.123c0.359-0.076,0.723-0.139,1.085-0.206c0.329-0.061,0.657-0.124,0.989-0.177
				c0.334-0.055,0.67-0.101,1.007-0.148c0.378-0.053,0.756-0.101,1.137-0.145c0.305-0.036,0.612-0.068,0.92-0.097
				c0.446-0.042,0.895-0.074,1.345-0.102c0.252-0.016,0.503-0.036,0.756-0.047c0.709-0.033,1.421-0.054,2.138-0.054
				c21.37,0,39.583,14.541,44.287,35.361c0.536,2.371,2.049,4.405,4.167,5.598c2.117,1.194,4.641,1.438,6.946,0.669
				c2.444-0.814,4.985-1.227,7.552-1.227c7.805,0,15.127,3.841,19.584,10.277c2.054,2.963,5.738,4.328,9.226,3.43
				c2.627-0.679,5.34-1.023,8.066-1.023c0.67,0,1.335,0.028,1.996,0.069c0.191,0.012,0.381,0.028,0.571,0.044
				c0.498,0.04,0.994,0.091,1.488,0.154c0.181,0.023,0.362,0.043,0.542,0.069c0.638,0.091,1.271,0.199,1.9,0.328
				c0.124,0.026,0.245,0.058,0.369,0.085c0.499,0.109,0.994,0.23,1.484,0.362c0.241,0.066,0.481,0.134,0.72,0.204
				c0.374,0.111,0.745,0.23,1.114,0.354c0.256,0.086,0.513,0.168,0.766,0.259c0.511,0.186,1.015,0.385,1.516,0.596
				c0.351,0.148,0.695,0.31,1.04,0.471c0.188,0.088,0.376,0.175,0.564,0.267c0.381,0.187,0.758,0.379,1.129,0.58
				c0.07,0.038,0.139,0.078,0.208,0.116c3.925,2.163,7.348,5.125,10.053,8.666c0.083,0.109,0.168,0.214,0.248,0.323
				c0.226,0.303,0.444,0.614,0.659,0.926c0.165,0.239,0.326,0.482,0.484,0.727c0.172,0.264,0.346,0.526,0.51,0.795
				c0.299,0.492,0.585,0.993,0.86,1.503c2.428,4.509,3.809,9.661,3.809,15.131c0,17.662-14.369,32.03-32.031,32.03H48.771
				c-17.403,0.003-31.561-14.154-31.561-31.557C17.21,243.874,31.368,229.715,48.771,229.715z"/>
			<path d="M501.891,376.787c-0.353,0-0.705,0.023-1.054,0.066l-12.64,1.562l13.503-38.224c0.008-0.02,0.016-0.044,0.024-0.068
				c1.767-5.01,3.099-9.852,0.158-14.008c-1.685-2.383-4.436-3.805-7.358-3.805c-4.026,0-7.419,2.395-11.689,8.236l-55.021,74.612
				c-0.259,0.352-0.492,0.722-0.695,1.108c-1.631,3.109-1.518,6.908,0.311,9.943c1.958,3.223,5.674,5.177,9.425,4.826l9.969-0.911
				l-16.085,41.245c-1.821,4.653-0.018,9.868,4.276,12.39c1.554,0.917,3.331,1.403,5.136,1.403c3.021,0,5.858-1.333,7.784-3.657
				c0.042-0.052,0.084-0.103,0.125-0.156l61.705-78.112c2.409-2.997,2.913-7.154,1.28-10.627
				C509.389,379.071,505.797,376.787,501.891,376.787z M464.031,423.366l3.881-9.951c1.083-2.778,0.651-5.918-1.141-8.301
				c-1.635-2.173-4.187-3.431-6.875-3.431c-0.26,0-0.522,0.012-0.784,0.035l-7.912,0.724l19.689-26.699l-3.551,10.05
				c-0.993,2.811-0.461,5.935,1.407,8.258c1.868,2.324,4.803,3.524,7.763,3.149l9.082-1.122L464.031,423.366z"/>
			<path d="M342.516,381.188c-1.655-3.537-5.249-5.821-9.155-5.821c-0.353,0-0.705,0.023-1.055,0.066l-12.639,1.562l13.494-38.2
				c0.01-0.026,0.019-0.054,0.028-0.081c1.77-5.016,3.107-9.861,0.165-14.021c-1.684-2.384-4.436-3.806-7.358-3.806
				c-4.026,0-7.419,2.394-11.69,8.236l-55.02,74.612c-0.255,0.345-0.483,0.709-0.684,1.089c-1.646,3.116-1.535,6.928,0.286,9.939
				c1.952,3.239,5.666,5.196,9.439,4.852l9.968-0.912l-16.084,41.242c-1.821,4.649-0.021,9.863,4.298,12.407
				c1.55,0.909,3.319,1.389,5.114,1.389c3.026,0,5.866-1.337,7.792-3.668c0.04-0.048,0.078-0.097,0.117-0.146l61.708-78.113
				C343.644,388.818,344.146,384.657,342.516,381.188z M295.5,421.947l3.882-9.955c1.083-2.777,0.651-5.918-1.141-8.299
				c-1.635-2.173-4.187-3.431-6.875-3.431c-0.26,0-0.522,0.012-0.784,0.036l-7.912,0.724l19.69-26.7l-3.551,10.053
				c-0.993,2.81-0.461,5.934,1.407,8.258c1.868,2.322,4.81,3.518,7.763,3.148l9.081-1.122L295.5,421.947z"/>
			<path d="M180.443,383.614c-1.654-3.54-5.248-5.828-9.157-5.828c-0.353,0-0.705,0.023-1.055,0.066l-12.64,1.562l13.504-38.226
				c0.006-0.018,0.013-0.034,0.018-0.052c0.003-0.009,0.006-0.017,0.009-0.025c1.767-5.007,3.095-9.844,0.157-13.999
				c-1.684-2.383-4.436-3.805-7.358-3.805c-4.026,0-7.419,2.395-11.689,8.236L97.21,406.155c-0.262,0.355-0.497,0.73-0.701,1.122
				c-1.624,3.11-1.506,6.907,0.319,9.93c1.957,3.224,5.664,5.173,9.425,4.827l9.969-0.912l-16.085,41.242
				c-1.82,4.648-0.02,9.862,4.284,12.398c1.553,0.915,3.327,1.398,5.128,1.398c3.026,0,5.866-1.337,7.792-3.668
				c0.04-0.048,0.079-0.097,0.117-0.146l61.703-78.111C181.567,391.242,182.072,387.085,180.443,383.614z M133.427,424.363
				l3.88-9.95c1.083-2.778,0.651-5.918-1.141-8.301c-1.635-2.173-4.187-3.431-6.875-3.431c-0.26,0-0.522,0.012-0.784,0.036
				l-7.914,0.724l19.69-26.699l-3.551,10.051c-0.993,2.811-0.461,5.935,1.407,8.259c1.867,2.322,4.812,3.517,7.763,3.148l9.08-1.122
				L133.427,424.363z"/>
		</g>
	</g>
</g>
<g>
</g>
<g>
</g>
<g>
</g>
<g>
</g>
<g>
</g>
<g>
</g>
<g>
</g>
<g>
</g>
<g>
</g>
<g>
</g>
<g>
</g>
<g>
</g>
<g>
</g>
<g>
</g>
<g>
</g>
</svg>
