<?xml version="1.0" encoding="iso-8859-1"?>
<!-- Generator: Adobe Illustrator 19.0.0, SVG Export Plug-In . SVG Version: 6.00 Build 0)  -->
<svg version="1.1" id="Layer_1" xmlns="http://www.w3.org/2000/svg" xmlns:xlink="http://www.w3.org/1999/xlink" x="0px" y="0px"
	 viewBox="0 0 512.001 512.001" style="enable-background:new 0 0 512.001 512.001;" xml:space="preserve">
<g>
	<g>
		<g>
			<path d="M256.002,218.152c-4.752,0-8.605,3.853-8.605,8.605V380.57c-19.267,3.987-33.792,21.088-33.792,41.518
				c0,23.378,19.019,42.397,42.397,42.397c23.377,0,42.396-19.019,42.396-42.397c0-20.431-14.525-37.53-33.791-41.518V226.757
				C264.607,222.006,260.754,218.152,256.002,218.152z M281.188,422.088c0,13.889-11.298,25.187-25.186,25.187
				c-13.889,0-25.187-11.298-25.187-25.187s11.298-25.187,25.187-25.187C269.889,396.901,281.188,408.2,281.188,422.088z"/>
			<path d="M330.903,372.317V64.81c0-13.022-10.594-23.615-23.615-23.615h-4.899v-0.205C302.388,18.388,284,0,261.399,0h-10.794
				c-22.602,0-40.99,18.388-40.99,40.989v0.206h-4.898c-13.022,0-23.615,10.594-23.615,23.615v307.507
				c-9.625,14.47-15.01,31.684-15.01,49.773c0,49.578,40.334,89.912,89.912,89.912c26.559,0,51.621-11.653,68.758-31.974
				c3.064-3.632,2.603-9.061-1.03-12.125c-3.632-3.066-9.062-2.604-12.125,1.03c-13.861,16.431-34.128,25.857-55.604,25.857
				c-40.089,0-72.702-32.613-72.702-72.702c0-15.275,4.747-29.781,13.192-41.793c0.073-0.095,0.155-0.181,0.225-0.279
				c5.755-8.088,13.184-14.975,21.655-20.12c0.126-0.076,0.254-0.151,0.381-0.226c1.122-0.671,2.258-1.318,3.414-1.928
				c0.02-0.011,0.039-0.021,0.059-0.032c2.829-1.489,4.599-4.42,4.599-7.617V49.8v-8.81c0-13.112,10.668-23.779,23.78-23.779h10.794
				c13.112,0,23.779,10.667,23.779,23.779v8.81v300.297c0,3.197,1.771,6.128,4.599,7.617c1.185,0.623,2.349,1.285,3.497,1.974
				c0.114,0.068,0.229,0.134,0.342,0.203c8.475,5.145,15.91,12.035,21.67,20.128c0.069,0.097,0.148,0.181,0.221,0.273
				c8.448,12.013,13.195,26.52,13.195,41.797c0,8.722-1.526,17.249-4.537,25.343c-1.656,4.454,0.61,9.409,5.065,11.065
				c4.457,1.655,9.409-0.61,11.065-5.065c3.727-10.018,5.617-20.564,5.617-31.343C345.914,403.999,340.527,386.787,330.903,372.317z
				 M209.614,345.07c-4.007,2.414-7.777,5.115-11.304,8.059v-35.375h11.304V345.07z M209.614,300.543H198.31v-23.984h11.304V300.543
				z M209.614,259.348H198.31v-23.987h11.304V259.348z M209.614,218.152H198.31v-23.985h11.304V218.152z M209.614,176.957H198.31
				v-23.987h11.304V176.957z M209.614,135.761H198.31v-23.984h11.304V135.761z M209.614,94.566H198.31V64.81
				c0-3.531,2.874-6.405,6.405-6.405h4.898V94.566z M302.388,58.405h4.9c3.531,0,6.405,2.874,6.405,6.405v29.756h-11.305V58.405z
				 M313.693,353.129c-3.527-2.945-7.298-5.646-11.305-8.059v-27.317h11.305V353.129z M313.693,300.543h-11.305v-23.984h11.305
				V300.543z M313.693,259.348h-11.305v-23.987h11.305V259.348z M313.693,218.153h-11.305v-23.985h11.305V218.153z M313.693,176.957
				h-11.305v-23.987h11.305V176.957z M313.693,135.761h-11.305v-23.984h11.305V135.761z"/>
		</g>
	</g>
</g>
<g>
</g>
<g>
</g>
<g>
</g>
<g>
</g>
<g>
</g>
<g>
</g>
<g>
</g>
<g>
</g>
<g>
</g>
<g>
</g>
<g>
</g>
<g>
</g>
<g>
</g>
<g>
</g>
<g>
</g>
</svg>
